<?xml version="1.0" encoding="iso-8859-1"?>
<!-- Generator: Adobe Illustrator 19.0.0, SVG Export Plug-In . SVG Version: 6.00 Build 0)  -->
<svg version="1.1" id="Layer_1" xmlns="http://www.w3.org/2000/svg" xmlns:xlink="http://www.w3.org/1999/xlink" x="0px" y="0px"
	 viewBox="0 0 511.998 511.998" style="enable-background:new 0 0 511.998 511.998;" xml:space="preserve">
<g>
	<g>
		<path d="M152.342,447.805c-1.953-3.861-6.668-5.408-10.527-3.458c-0.667,0.337-6.697,3.503-13.211,10.875
			c-2.866,3.244-2.559,8.194,0.683,11.059c1.491,1.317,3.341,1.964,5.185,1.964c2.168,0,4.326-0.894,5.874-2.647
			c4.424-5.007,8.409-7.195,8.594-7.295C152.76,456.334,154.284,451.648,152.342,447.805z"/>
	</g>
</g>
<g>
	<g>
		<path d="M183.898,203.292h-10.354c-4.328,0-7.835,3.508-7.835,7.835c0,4.327,3.507,7.835,7.835,7.835h10.354
			c4.328,0,7.835-3.508,7.835-7.835C191.733,206.8,188.226,203.292,183.898,203.292z"/>
	</g>
</g>
<g>
	<g>
		<path d="M338.454,203.292H328.1c-4.328,0-7.835,3.508-7.835,7.835c0,4.327,3.507,7.835,7.835,7.835h10.354
			c4.328,0,7.835-3.508,7.835-7.835C346.289,206.8,342.782,203.292,338.454,203.292z"/>
	</g>
</g>
<g>
	<g>
		<path d="M197.147,97.981l-82.936-50.885c-8.821-5.412-20.34-3.394-26.796,4.695c-2.698,3.382-2.146,8.312,1.237,11.011
			c3.382,2.699,8.312,2.147,11.012-1.237c1.531-1.917,4.262-2.394,6.354-1.113l78.374,48.086
			c-2.34,9.19-10.853,29.779-40.912,38.704c-4.148,1.232-6.512,5.593-5.281,9.741c1.01,3.405,4.128,5.607,7.508,5.607
			c0.739,0,1.49-0.106,2.233-0.326c49.099-14.577,52.789-55.277,52.922-57.003C201.089,102.33,199.654,99.518,197.147,97.981z"/>
	</g>
</g>
<g>
	<g>
		<path d="M424.582,51.791c-6.455-8.088-17.973-10.107-26.796-4.695l-82.936,50.885c-2.507,1.538-3.942,4.349-3.715,7.28
			c0.133,1.726,3.822,42.426,52.923,57.003c0.745,0.22,1.495,0.326,2.233,0.326c3.378,0,6.498-2.203,7.508-5.607
			c1.233-4.148-1.132-8.509-5.281-9.741c-30.083-8.931-38.586-29.546-40.915-38.702l78.376-48.088
			c2.091-1.284,4.822-0.805,6.354,1.113c2.699,3.382,7.628,3.937,11.012,1.237C426.727,60.104,427.281,55.173,424.582,51.791z"/>
	</g>
</g>
<g>
	<g>
		<path d="M263.861,316.151c1.342-0.551,2.606-1.237,3.748-2.062l32.168-23.254c5.26-3.802,7.378-9.716,5.527-15.435
			c-2.128-6.579-9.014-10.999-17.135-10.999h-64.339c-8.12,0-15.007,4.42-17.135,10.999c-1.852,5.719,0.265,11.634,5.525,15.435
			l32.168,23.254c1.156,0.837,2.437,1.531,3.799,2.085v4.099c-0.01,0.168-0.025,0.334-0.025,0.506c0,0.077,0.007,0.154,0.008,0.231
			c-0.09,3.412-2.125,6.488-5.257,7.879c-3.172,1.406-6.896,0.828-9.49-1.474l-9.184-8.149c-3.234-2.873-8.188-2.576-11.06,0.66
			c-2.873,3.236-2.577,8.188,0.66,11.061l9.183,8.149c4.571,4.055,10.41,6.177,16.313,6.177c3.365,0,6.751-0.689,9.935-2.102
			c2.524-1.12,4.782-2.647,6.738-4.466c1.956,1.82,4.214,3.346,6.738,4.466c3.184,1.413,6.569,2.103,9.935,2.102
			c5.902,0,11.743-2.122,16.312-6.177l9.184-8.149c3.237-2.872,3.533-7.825,0.66-11.061c-2.869-3.235-7.822-3.532-11.06-0.66
			l-9.185,8.149c-2.594,2.302-6.319,2.88-9.489,1.474c-3.132-1.39-5.167-4.467-5.256-7.879c0.001-0.077,0.008-0.154,0.008-0.231
			V316.151z M258.427,301.39c-0.394,0.284-1.266,0.616-2.429,0.616c-1.163,0-2.035-0.332-2.429-0.616l-29.491-21.318h63.839
			L258.427,301.39z"/>
	</g>
</g>
<g>
	<g>
		<path d="M498.524,502.683c-9.759-50.663-37.181-96.91-77.532-131.116c35.709-39.481,57.487-91.786,57.487-149.086
			c0-46.012-13.883-90.019-40.175-127.519l8.631-34.283c1.78-7.073,1.262-14.381-1.5-21.133
			c-5.242-12.814-17.585-21.094-31.444-21.094c-6.15,0-12.203,1.692-17.504,4.894l-20.007,12.082C340.558,12.237,299.016,0,256,0
			c-43.016,0-84.558,12.237-120.481,35.427l-20.006-12.082c-5.302-3.202-11.354-4.895-17.504-4.895
			c-13.86,0-26.201,8.28-31.444,21.095c-2.762,6.751-3.28,14.058-1.5,21.133L73.7,94.986c-9.606,13.712-17.665,28.461-23.937,43.921
			c-1.628,4.009,0.304,8.579,4.313,10.206c0.965,0.392,1.963,0.577,2.943,0.577c3.095,0,6.029-1.847,7.263-4.891
			c4.086-10.067,8.99-19.81,14.625-29.13l5.87,23.319c3.535,14.038,1.841,29.13-4.77,42.497c-4.551,9.201-7.6,19.924-9.139,32.012
			l-5.585-2.126c-4.043-1.538-8.57,0.491-10.11,4.536c-1.539,4.044,0.492,8.57,4.536,10.109l10.017,3.812
			c-0.017,0.98-0.032,1.962-0.032,2.955c0,17.71,3.692,34.549,11.002,50.42H58.291c-5.912-19.21-9.102-39.601-9.102-60.724
			c0-17.948,2.302-35.761,6.843-52.944c1.106-4.184-1.389-8.471-5.573-9.576c-4.19-1.108-8.471,1.39-9.576,5.573
			c-4.886,18.488-7.363,37.648-7.363,56.947c0,57.3,21.778,109.606,57.487,149.086c-40.351,34.206-67.772,80.453-77.532,131.116
			c-0.443,2.295,0.163,4.669,1.652,6.471c1.489,1.803,3.704,2.847,6.041,2.847h98.41c0.001,0,0.001,0,0.002,0s0.001,0,0.002,0
			H392.41c0.003,0,0.005,0,0.008,0c0.003,0,0.005,0,0.008,0h98.404c2.337,0,4.553-1.044,6.041-2.847
			C498.361,507.351,498.967,504.978,498.524,502.683z M462.809,222.48c0,21.123-3.19,41.514-9.102,60.724h-22.403
			c7.31-15.87,11.001-32.71,11.001-50.42c0-0.995-0.016-1.975-0.032-2.955l10.017-3.812c4.044-1.54,6.075-6.065,4.536-10.109
			c-1.541-4.045-6.066-6.074-10.11-4.536l-5.585,2.126c-1.539-12.088-4.588-22.81-9.139-32.012
			c-6.611-13.367-8.305-28.46-4.77-42.497l5.876-23.343C452.582,147.81,462.809,184.404,462.809,222.48z M256,15.67
			c37.391,0,73.58,9.944,105.416,28.855l-55.349,33.424c-16.446-3.33-33.27-5.021-50.054-5.023c-0.029,0-0.061,0-0.091,0
			c-16.762,0.006-33.561,1.695-49.99,5.023l-55.348-33.424C182.419,25.614,218.608,15.67,256,15.67z M186.249,257.409L85.987,219.25
			c1.136-11.923,3.832-22.256,8.066-30.82c8.261-16.703,10.364-35.621,5.921-53.27L89.76,94.588c0-0.001-0.001-0.003-0.001-0.004
			L80.26,56.851c-0.959-3.807-0.679-7.741,0.805-11.374c2.823-6.899,9.472-11.358,16.941-11.358c3.294,0,6.546,0.912,9.404,2.639
			l93.058,56.197c1.709,1.031,3.789,1.364,5.738,0.944c16.301-3.512,33.023-5.296,49.705-5.304c0.028,0,0.058,0,0.087,0
			c0.003,0,0.004,0.001,0.013,0c16.706,0.002,33.454,1.786,49.856,5.319c1.938,0.408,3.966,0.066,5.663-0.96l93.058-56.197
			c2.858-1.726,6.11-2.638,9.404-2.638c7.468,0,14.119,4.459,16.941,11.358c1.486,3.633,1.766,7.567,0.806,11.374l-9.499,37.733
			c0,0.001-0.001,0.003-0.001,0.004l-10.214,40.573c-4.443,17.648-2.34,36.566,5.921,53.27c4.235,8.564,6.93,18.896,8.066,30.82
			L325.75,257.41c-4.044,1.54-6.074,6.065-4.536,10.109c1.191,3.128,4.166,5.051,7.324,5.051c0.927,0,1.869-0.165,2.786-0.514
			l95.267-36.257c-0.477,17.596-5.123,33.345-12.701,47.406h-80.889c-4.328,0-7.835,3.508-7.835,7.835
			c0,4.327,3.507,7.835,7.835,7.835h70.771c-24.385,32.204-64.311,54.096-99.9,68.266c-15.29,6.087-31.39,9.174-47.857,9.174
			c-0.001,0-0.002,0-0.003,0c-16.468-0.001-32.57-3.086-47.858-9.172c-35.597-14.17-75.531-36.062-99.92-68.268H179
			c4.328,0,7.835-3.508,7.835-7.835c0-4.327-3.507-7.835-7.835-7.835H98.112c-7.579-14.062-12.226-29.811-12.704-47.407
			l95.267,36.257c0.917,0.349,1.859,0.514,2.786,0.514c3.157,0,6.133-1.923,7.324-5.051
			C192.324,263.474,190.293,258.948,186.249,257.409z M63.818,298.875h25.477c7.101,11.078,16.11,21.622,27.029,31.592
			c21.889,19.986,50.834,37.224,86.033,51.236c17.139,6.823,35.191,10.283,53.651,10.283c0.002,0,0.002,0,0.004,0
			c18.459,0,36.512-3.461,53.653-10.286c35.193-14.012,64.134-31.25,86.02-51.236c10.915-9.967,19.922-20.512,27.02-31.589h25.474
			c-30.451,76.333-105.116,130.416-192.181,130.416S94.269,375.207,63.818,298.875z M399.936,496.33
			c-3.138-38.082-28.599-51.401-29.752-51.984c-3.863-1.95-8.606-0.42-10.557,3.443c-1.951,3.862-0.436,8.559,3.426,10.51
			c0.808,0.427,18.298,10.032,21.133,38.03h-256.37c0.296-2.919,0.748-5.746,1.378-8.44c0.986-4.213-1.63-8.428-5.843-9.414
			c-4.214-0.985-8.428,1.63-9.416,5.843c-0.898,3.84-1.522,7.859-1.868,12.012H30.882c10.582-43.826,35.494-83.63,71.061-113.492
			c40.008,38.45,94.317,62.123,154.055,62.123c59.738,0,114.047-23.673,154.055-62.123c35.569,29.863,60.481,69.667,71.061,113.492
			H399.936z"/>
	</g>
</g>
<g>
</g>
<g>
</g>
<g>
</g>
<g>
</g>
<g>
</g>
<g>
</g>
<g>
</g>
<g>
</g>
<g>
</g>
<g>
</g>
<g>
</g>
<g>
</g>
<g>
</g>
<g>
</g>
<g>
</g>
</svg>
